<svg xmlns="http://www.w3.org/2000/svg" viewBox="0 0 32 32">
  <defs>
    <linearGradient id="g" x1="0" y1="0" x2="1" y2="1">
      <stop offset="0%" stop-color="#22d3ee"/>
      <stop offset="100%" stop-color="#3b82f6"/>
    </linearGradient>
  </defs>
  <rect width="32" height="32" rx="7" fill="url(#g)"/>
  <circle cx="19.5" cy="7.5" r="2.8" fill="#fff"/>
  <path d="M11 13.5c0 0 2.5-3 5.5-3.2c1.8-.1 3 1 3.8 2.5l1.5 2.8c.3.5.1 1.1-.4 1.4l-2.5 1.2l2 5.5c.2.6-.1 1.2-.7 1.4c-.6.2-1.2-.1-1.4-.7l-2.3-6.2l-1.5 1.8v5c0 .6-.5 1.1-1.1 1.1s-1.1-.5-1.1-1.1v-5.8c0-.3.1-.6.3-.8l2.2-2.7l-.8-1.5l-2.8 2.5c-.4.3-1 .3-1.3-.1c-.4-.4-.3-1 .1-1.3z" fill="#fff"/>
</svg>
